<svg width="56" height="56" viewBox="0 0 56 56" fill="none" xmlns="http://www.w3.org/2000/svg">
<path fill-rule="evenodd" clip-rule="evenodd" d="M16.0066 2.91667H16.303C17.122 2.91667 17.6493 2.91667 18.165 2.96334C20.2677 3.15999 22.2706 3.95335 23.9376 5.25H38.6353C39.5896 5.25 40.2383 5.25 40.8076 5.32467C42.796 5.58712 44.6338 6.52465 46.0135 7.98033C47.3931 9.436 48.2308 11.3214 48.3863 13.321C49.0419 13.6176 49.648 14.0134 50.183 14.4947C50.4163 14.7016 50.6348 14.9193 50.8386 15.148C52.073 16.52 52.598 18.1883 52.8453 20.1507C53.0833 22.0453 53.0833 24.4393 53.0833 27.4097V32.7997C53.0833 37.086 53.0833 40.4833 52.7263 43.141C52.3576 45.8757 51.583 48.09 49.8376 49.8377C48.09 51.583 45.8756 52.3577 43.141 52.7263C40.481 53.0833 37.086 53.0833 32.7973 53.0833H23.2026C18.914 53.0833 15.5166 53.0833 12.859 52.7263C10.1243 52.3577 7.90996 51.583 6.16229 49.8377C4.41696 48.09 3.64229 45.8757 3.27363 43.141C2.91663 40.481 2.91663 37.086 2.91663 32.7973V16.0067C2.91663 14.147 2.91663 12.9663 3.10796 11.9467C3.52059 9.75479 4.58492 7.7384 6.16183 6.16107C7.73874 4.58375 9.75486 3.51888 11.9466 3.10567C12.9686 2.91434 14.1493 2.91434 16.0066 2.91434M44.6763 12.4297C44.3774 11.4742 43.8116 10.6241 43.0456 9.97956C42.2795 9.33505 41.3451 8.923 40.3526 8.792C40.04 8.75234 39.6386 8.74767 38.5 8.74767H27.559C29.0593 10.241 29.7406 10.8617 30.513 11.291C31.0232 11.5741 31.5591 11.7966 32.1206 11.9583C33.0843 12.2313 34.1413 12.2477 36.932 12.2477H37.9236C40.635 12.2477 42.868 12.2477 44.6763 12.4297ZM16.2166 6.41667C14.077 6.41667 13.251 6.42367 12.593 6.54734C11.0946 6.83059 9.71636 7.55901 8.63827 8.63751C7.56019 9.71601 6.8323 11.0945 6.54963 12.593C6.42363 13.251 6.41663 14.077 6.41663 16.2167V32.6667C6.41663 37.1163 6.42129 40.278 6.74329 42.6767C7.05829 45.0217 7.65096 46.375 8.63796 47.362C9.62496 48.349 10.9783 48.9417 13.3256 49.2567C15.7243 49.5787 18.8836 49.5833 23.3333 49.5833H32.6666C37.1163 49.5833 40.278 49.5787 42.6766 49.2567C45.0216 48.9417 46.375 48.349 47.362 47.362C48.349 46.375 48.9416 45.0217 49.2566 42.6743C49.5786 40.278 49.5833 37.1163 49.5833 32.6667V27.5287C49.5833 24.4113 49.581 22.239 49.3733 20.587C49.1703 18.9793 48.7993 18.1137 48.237 17.4883C48.1142 17.35 47.9833 17.2191 47.845 17.0963C47.2196 16.534 46.3516 16.163 44.7463 15.96C43.0966 15.7523 40.922 15.75 37.8046 15.75H36.6753C34.23 15.75 32.6526 15.75 31.1616 15.3253C30.345 15.092 29.554 14.7653 28.8096 14.3523C27.4563 13.5963 26.341 12.4833 24.6096 10.752L24.43 10.57L23.1466 9.28667C22.7719 8.89492 22.3803 8.51967 21.973 8.162C20.7991 7.1886 19.3589 6.59174 17.8406 6.44934C17.3 6.41489 16.7582 6.40399 16.2166 6.41667ZM28.5833 23.3333C28.5833 22.8692 28.7677 22.4241 29.0959 22.0959C29.424 21.7677 29.8692 21.5833 30.3333 21.5833H42C42.4641 21.5833 42.9092 21.7677 43.2374 22.0959C43.5656 22.4241 43.75 22.8692 43.75 23.3333C43.75 23.7975 43.5656 24.2426 43.2374 24.5708C42.9092 24.899 42.4641 25.0833 42 25.0833H30.3333C29.8692 25.0833 29.424 24.899 29.0959 24.5708C28.7677 24.2426 28.5833 23.7975 28.5833 23.3333Z" fill="black"/>
</svg>
